<?xml version="1.0" encoding="UTF-8" standalone="no"?>
<!-- Created with Inkscape (http://www.inkscape.org/) -->

<svg
   width="210mm"
   height="297mm"
   viewBox="0 0 210 297"
   version="1.1"
   id="svg1"
   xml:space="preserve"
   inkscape:version="1.4.2 (f4327f4, 2025-05-13)"
   sodipodi:docname="StarsBackGround.svg"
   xmlns:inkscape="http://www.inkscape.org/namespaces/inkscape"
   xmlns:sodipodi="http://sodipodi.sourceforge.net/DTD/sodipodi-0.dtd"
   xmlns="http://www.w3.org/2000/svg"
   xmlns:svg="http://www.w3.org/2000/svg"><sodipodi:namedview
     id="namedview1"
     pagecolor="#ffffff"
     bordercolor="#000000"
     borderopacity="0.25"
     inkscape:showpageshadow="2"
     inkscape:pageopacity="0.0"
     inkscape:pagecheckerboard="0"
     inkscape:deskcolor="#d1d1d1"
     inkscape:document-units="mm"
     inkscape:zoom="0.63"
     inkscape:rotation="90"
     inkscape:cx="423.01587"
     inkscape:cy="617.46032"
     inkscape:window-width="1366"
     inkscape:window-height="705"
     inkscape:window-x="-8"
     inkscape:window-y="-8"
     inkscape:window-maximized="1"
     inkscape:current-layer="layer1" /><defs
     id="defs1" /><g
     inkscape:label="Layer 1"
     inkscape:groupmode="layer"
     id="layer1"><path
       style="fill:#ffffff;stroke-width:0.0780799"
       d="m 108.26534,294.36368 c 0.52024,0.39245 1.29218,0.0504 1.30579,-0.41355 0.016,-0.54471 -0.4368,-0.91399 -1.04588,-0.75435 -0.57962,0.15192 -0.81513,0.74905 -0.25991,1.1679 z"
       id="path1-80"
       sodipodi:nodetypes="ssss" /><path
       style="fill:#ffffff;stroke-width:0.0625564"
       d="m 74.569705,170.81825 c 0.365901,0.35817 0.908829,0.046 0.918403,-0.37743 0.01125,-0.49713 -0.307212,-0.83415 -0.735603,-0.68846 -0.407662,0.13865 -0.573303,0.68363 -0.1828,1.06589 z"
       id="path1-94"
       sodipodi:nodetypes="ssss" /><path
       style="fill:#ffffff;stroke-width:0.0436555"
       d="m 99.658345,269.83233 c 0.28873,0.22105 0.717155,0.0284 0.724705,-0.23294 0.009,-0.30681 -0.24241,-0.51481 -0.580457,-0.42489 -0.321685,0.0856 -0.452393,0.42191 -0.144248,0.65783 z"
       id="path1-268"
       sodipodi:nodetypes="ssss" /><path
       style="fill:#ffffff;stroke-width:0.0451734"
       d="m 74.569705,267.53822 c 0.365901,0.18677 0.908829,0.024 0.918403,-0.19682 0.01125,-0.25923 -0.307212,-0.43497 -0.735603,-0.359 -0.407662,0.0723 -0.573303,0.35648 -0.1828,0.55582 z"
       id="path1-481"
       sodipodi:nodetypes="ssss" /><path
       style="fill:#ffffff;stroke-width:0.0516706"
       d="m 78.297258,272.74275 c 0.404486,0.22105 1.004668,0.0284 1.015251,-0.23294 0.01243,-0.30681 -0.339608,-0.51481 -0.813173,-0.42489 -0.450651,0.0856 -0.633759,0.42191 -0.202078,0.65783 z"
       id="path1-59"
       sodipodi:nodetypes="ssss" /><path
       style="fill:#ffffff;stroke-width:0.0780799"
       d="m 83.659089,290.39493 c 0.52024,0.39245 1.292179,0.0504 1.305791,-0.41355 0.01599,-0.54471 -0.436796,-0.91399 -1.045884,-0.75435 -0.579616,0.15192 -0.815126,0.74905 -0.259907,1.1679 z"
       id="path1-314"
       sodipodi:nodetypes="ssss" /><path
       style="fill:#ffffff;stroke-width:0.0563845"
       d="m 59.149716,282.72475 c 0.481656,0.22105 1.196342,0.0284 1.208944,-0.23293 0.01481,-0.30682 -0.4044,-0.51482 -0.968313,-0.4249 -0.536628,0.0856 -0.754671,0.42191 -0.240631,0.65783 z"
       id="path1-019"
       sodipodi:nodetypes="ssss" /><path
       style="fill:#ffffff;stroke-width:0.0780799"
       d="m 48.734089,293.56993 c 0.52024,0.39245 1.292179,0.0504 1.305791,-0.41355 0.01599,-0.54471 -0.436796,-0.91399 -1.045884,-0.75435 -0.579616,0.15192 -0.815126,0.74905 -0.259907,1.1679 z"
       id="path1-7743"
       sodipodi:nodetypes="ssss" /><path
       style="fill:#ffffff;stroke-width:0.0528176"
       d="m 23.505121,286.22152 c 0.365901,0.25533 0.908829,0.0328 0.918403,-0.26906 0.01125,-0.35439 -0.307212,-0.59465 -0.735603,-0.49079 -0.407662,0.0988 -0.573303,0.48734 -0.1828,0.75985 z"
       id="path1-74"
       sodipodi:nodetypes="ssss" /><path
       style="fill:#ffffff;stroke-width:0.0408179"
       d="m 56.529931,189.91002 c 0.365901,0.15249 0.90883,0.0196 0.918404,-0.16069 0.01125,-0.21165 -0.307212,-0.35514 -0.735603,-0.29311 -0.407662,0.059 -0.573304,0.29105 -0.182801,0.4538 z"
       id="path1-41"
       sodipodi:nodetypes="ssss" /><path
       style="fill:#ffffff;stroke-width:0.0516706"
       d="m 26.005971,239.33309 c 0.404486,0.22105 1.004667,0.0284 1.01525,-0.23293 0.01243,-0.30682 -0.339608,-0.51482 -0.813173,-0.4249 -0.45065,0.0856 -0.633759,0.42191 -0.202077,0.65783 z"
       id="path1-17"
       sodipodi:nodetypes="ssss" /><path
       style="fill:#ffffff;stroke-width:0.0780799"
       d="m 27.832006,259.96785 c 0.52024,0.39245 1.292179,0.0504 1.305791,-0.41355 0.01599,-0.54471 -0.436796,-0.91399 -1.045884,-0.75435 -0.579616,0.15192 -0.815126,0.74905 -0.259907,1.1679 z"
       id="path1-771"
       sodipodi:nodetypes="ssss" /><path
       style="fill:#ffffff;stroke-width:0.0618998"
       d="m 34.399813,269.27321 c 0.443071,0.28961 1.100505,0.0372 1.112098,-0.30518 0.01362,-0.40197 -0.372005,-0.67449 -0.890744,-0.55668 -0.493639,0.11211 -0.694215,0.55277 -0.221354,0.86186 z"
       id="path1-582"
       sodipodi:nodetypes="ssss" /><path
       style="fill:#ffffff;stroke-width:0.0540789"
       d="m 9.7935633,270.3615 c 0.4430707,0.22105 1.1005047,0.0284 1.1120977,-0.23294 0.01362,-0.30681 -0.372005,-0.51481 -0.890744,-0.42489 -0.4936388,0.0856 -0.6942146,0.42191 -0.2213537,0.65783 z"
       id="path1-925"
       sodipodi:nodetypes="ssss" /><path
       style="fill:#ffffff;stroke-width:0.058121"
       d="m 5.2956463,290.45485 c 0.4430705,0.25533 1.1005044,0.0328 1.1120973,-0.26906 0.013618,-0.35439 -0.3720041,-0.59465 -0.8907434,-0.49079 -0.493639,0.0988 -0.6942148,0.48734 -0.2213539,0.75985 z"
       id="path1-341"
       sodipodi:nodetypes="ssss" /><path
       style="fill:#ffffff;stroke-width:0.0469185"
       d="m 12.345845,244.68194 c 0.288732,0.25533 0.717155,0.0328 0.72471,-0.26906 0.0089,-0.35439 -0.242421,-0.59465 -0.580462,-0.49079 -0.321686,0.0988 -0.452393,0.48734 -0.144248,0.75985 z"
       id="path1-50"
       sodipodi:nodetypes="ssss" /><path
       style="fill:#ffffff;stroke-width:0.0780799"
       d="m 37.621589,282.72202 c 0.52024,0.39245 1.292179,0.0504 1.305791,-0.41355 0.01599,-0.54471 -0.436796,-0.91399 -1.045884,-0.75435 -0.579616,0.15192 -0.815126,0.74905 -0.259907,1.1679 z"
       id="path1-225"
       sodipodi:nodetypes="ssss" /><path
       style="fill:#ffffff;stroke-width:0.0780799"
       d="m 17.513256,277.69493 c 0.52024,0.39245 1.292179,0.0504 1.305791,-0.41355 0.01599,-0.54471 -0.436796,-0.91399 -1.045884,-0.75435 -0.579616,0.15192 -0.815126,0.74905 -0.259907,1.1679 z"
       id="path1-35"
       sodipodi:nodetypes="ssss" /><path
       style="fill:#ffffff;stroke-width:0.0780799"
       d="m 62.492422,167.62827 c 0.52024,0.39245 1.292179,0.0504 1.305791,-0.41355 0.01599,-0.54471 -0.436796,-0.91399 -1.045884,-0.75435 -0.579616,0.15192 -0.815126,0.74905 -0.259907,1.1679 z"
       id="path1-482"
       sodipodi:nodetypes="ssss" /><path
       style="fill:#ffffff;stroke-width:0.0737449"
       d="m 83.129922,156.79886 c 0.52024,0.35009 1.292179,0.045 1.305791,-0.3689 0.01599,-0.4859 -0.436796,-0.81532 -1.045884,-0.67291 -0.579616,0.13552 -0.815126,0.66818 -0.259907,1.04181 z"
       id="path1-55"
       sodipodi:nodetypes="ssss" /><path
       style="fill:#ffffff;stroke-width:0.0501124"
       d="m 77.93288,139.85567 c 0.377173,0.22297 0.936827,0.0286 0.946696,-0.23497 0.01159,-0.30948 -0.316676,-0.5193 -0.758264,-0.42859 -0.42022,0.0863 -0.590965,0.42558 -0.188432,0.66356 z"
       id="path1-528"
       sodipodi:nodetypes="ssss" /><path
       style="fill:#ffffff;stroke-width:0.0664113"
       d="m 105.71616,84.28452 c 0.37636,0.39245 0.93482,0.0504 0.94466,-0.41355 0.0116,-0.54471 -0.31599,-0.91399 -0.75663,-0.75435 -0.41933,0.15192 -0.5897,0.74905 -0.18803,1.1679 z"
       id="path1-47"
       sodipodi:nodetypes="ssss" /><path
       style="fill:#ffffff;stroke-width:0.051923"
       d="m 78.115528,73.406738 c 0.304427,0.296583 0.75614,0.03809 0.764105,-0.312529 0.0094,-0.411649 -0.255598,-0.690722 -0.612016,-0.570078 -0.339172,0.114809 -0.476984,0.566073 -0.152089,0.882607 z"
       id="path1-530"
       sodipodi:nodetypes="ssss" /><path
       style="fill:#ffffff;stroke-width:0.0427147"
       d="m 68.590528,87.928966 c 0.304427,0.200715 0.75614,0.02578 0.764105,-0.211508 0.0094,-0.278588 -0.255598,-0.467453 -0.612016,-0.385807 -0.339172,0.0777 -0.476984,0.383097 -0.152089,0.597315 z"
       id="path1-95"
       sodipodi:nodetypes="ssss" /><path
       style="fill:#ffffff;stroke-width:0.0511354"
       d="m 78.280213,120.86684 c 0.376365,0.23267 0.93482,0.0299 0.944667,-0.24518 0.01157,-0.32294 -0.315997,-0.54188 -0.756639,-0.44723 -0.41932,0.0901 -0.589698,0.44409 -0.188028,0.69241 z"
       id="path1-832"
       sodipodi:nodetypes="ssss" /><path
       style="fill:#ffffff;stroke-width:0.0367806"
       d="m 87.466255,88.359988 c 0.268458,0.16876 0.6668,0.02167 0.673824,-0.177833 0.0083,-0.234235 -0.225399,-0.393031 -0.539705,-0.324383 -0.299098,0.06533 -0.420628,0.322104 -0.134119,0.502216 z"
       id="path1-731"
       sodipodi:nodetypes="ssss" /><path
       style="fill:#ffffff;stroke-width:0.0780799"
       d="m 84.982006,94.60327 c 0.52024,0.39245 1.292179,0.0504 1.305791,-0.41355 0.01599,-0.54471 -0.436796,-0.91399 -1.045884,-0.75435 -0.579616,0.15192 -0.815126,0.74905 -0.259907,1.1679 z"
       id="path1-442"
       sodipodi:nodetypes="ssss" /><path
       style="fill:#ffffff;stroke-width:0.0710975"
       d="m 65.084378,99.10118 c 0.431354,0.39245 1.071402,0.0504 1.082689,-0.41355 0.01326,-0.54471 -0.362167,-0.91399 -0.867189,-0.75435 -0.480584,0.15192 -0.675856,0.74905 -0.2155,1.1679 z"
       id="path1-926"
       sodipodi:nodetypes="ssss" /><path
       style="fill:#ffffff;stroke-width:0.0674214"
       d="m 59.263545,131.66204 c 0.431353,0.35304 1.0714,0.0461 1.082687,-0.37193 0.01332,-0.48983 -0.362167,-0.8219 -0.867187,-0.67833 -0.480586,0.13642 -0.675857,0.67358 -0.2155,1.05022 z"
       id="path1-51"
       sodipodi:nodetypes="ssss" /><path
       style="fill:#ffffff;stroke-width:0.0421392"
       d="m 50.424539,113.19312 c 0.253581,0.23451 0.629848,0.0301 0.636483,-0.24712 0.0078,-0.3255 -0.212908,-0.54617 -0.509797,-0.45077 -0.282522,0.0908 -0.397317,0.4476 -0.126686,0.69789 z"
       id="path1-162"
       sodipodi:nodetypes="ssss" /><path
       style="fill:#ffffff;stroke-width:0.0372045"
       d="m 53.891062,88.092205 c 0.298024,0.155543 0.740236,0.01997 0.748034,-0.163906 0.0092,-0.215889 -0.250223,-0.362248 -0.599144,-0.298977 -0.332039,0.06021 -0.466953,0.296877 -0.14889,0.462883 z"
       id="path1-76"
       sodipodi:nodetypes="ssss" /><path
       style="fill:#ffffff;stroke-width:0.0372045"
       d="m 37.486895,46.552625 c 0.298024,0.155543 0.740236,0.01998 0.748034,-0.163906 0.0092,-0.215889 -0.250223,-0.362248 -0.599144,-0.298977 -0.332039,0.06021 -0.466953,0.296877 -0.14889,0.462883 z"
       id="path1-203"
       sodipodi:nodetypes="ssss" /><path
       style="fill:#ffffff;stroke-width:0.0520515"
       d="m 38.334522,119.8077 c 0.386911,0.23451 0.961014,0.0301 0.971137,-0.24712 0.01189,-0.3255 -0.324852,-0.54617 -0.77784,-0.45077 -0.431069,0.0908 -0.606222,0.4476 -0.193297,0.69789 z"
       id="path1-71"
       sodipodi:nodetypes="ssss" /><path
       style="fill:#ffffff;stroke-width:0.0429383"
       d="m 127.17669,85.686365 c 0.29151,0.211814 0.72405,0.0272 0.73167,-0.223202 0.009,-0.293992 -0.24475,-0.493301 -0.58603,-0.40714 -0.32478,0.082 -0.45674,0.404279 -0.14564,0.630342 z"
       id="path1-07"
       sodipodi:nodetypes="ssss" /><path
       style="fill:#ffffff;stroke-width:0.0465316"
       d="m 103.395,54.994705 c 0.34234,0.211814 0.8503,0.0272 0.85925,-0.223202 0.0105,-0.293992 -0.28742,-0.493301 -0.68822,-0.40714 -0.38141,0.08199 -0.53638,0.404279 -0.17103,0.630342 z"
       id="path1-577"
       sodipodi:nodetypes="ssss" /><path
       style="fill:#ffffff;stroke-width:0.0390155"
       d="m 110.47713,68.488455 c 0.24068,0.211814 0.59779,0.0272 0.60409,-0.223202 0.007,-0.293992 -0.20207,-0.493301 -0.48385,-0.40714 -0.26814,0.08199 -0.37709,0.404279 -0.12024,0.630342 z"
       id="path1-129"
       sodipodi:nodetypes="ssss" /><path
       style="fill:#ffffff;stroke-width:0.0429383"
       d="m 119.23919,58.169705 c 0.29151,0.211814 0.72405,0.0272 0.73167,-0.223202 0.009,-0.293992 -0.24475,-0.493301 -0.58603,-0.40714 -0.32478,0.08199 -0.45674,0.404279 -0.14564,0.630342 z"
       id="path1-300"
       sodipodi:nodetypes="ssss" /><path
       style="fill:#ffffff;stroke-width:0.0470969"
       d="m 120.31293,34.611918 c 0.31692,0.234394 0.78717,0.0301 0.79546,-0.246995 0.01,-0.325333 -0.26609,-0.545888 -0.63713,-0.450542 -0.35309,0.09074 -0.49656,0.447376 -0.15833,0.697537 z"
       id="path1-06"
       sodipodi:nodetypes="ssss" /><path
       style="fill:#ffffff;stroke-width:0.0423175"
       d="m 96.500431,71.144152 c 0.316919,0.189235 0.787168,0.0243 0.79546,-0.199409 0.0097,-0.262652 -0.266087,-0.440715 -0.63713,-0.363738 -0.35309,0.07325 -0.496558,0.361183 -0.15833,0.563147 z"
       id="path1-155"
       sodipodi:nodetypes="ssss" /><path
       style="fill:#ffffff;stroke-width:0.0405852"
       d="m 92.516276,55.798322 c 0.291504,0.189235 0.724041,0.0243 0.731668,-0.199409 0.009,-0.262652 -0.244748,-0.440715 -0.586036,-0.363738 -0.324774,0.07325 -0.456736,0.361183 -0.145632,0.563147 z"
       id="path1-302"
       sodipodi:nodetypes="ssss" /><path
       style="fill:#ffffff;stroke-width:0.0423175"
       d="m 108.1421,12.142072 c 0.31692,0.189235 0.78717,0.0243 0.79546,-0.199409 0.01,-0.262652 -0.26609,-0.440715 -0.63713,-0.363738 -0.35309,0.07325 -0.49656,0.361183 -0.15833,0.563147 z"
       id="path1-774"
       sodipodi:nodetypes="ssss" /><path
       style="fill:#ffffff;stroke-width:0.0472946"
       d="m 104.42252,30.897881 c 0.29151,0.256974 0.72405,0.033 0.73167,-0.270789 0.009,-0.356672 -0.24474,-0.598473 -0.58603,-0.493942 -0.32478,0.09948 -0.45674,0.490472 -0.14564,0.764731 z"
       id="path1-84"
       sodipodi:nodetypes="ssss" /><path
       style="fill:#ffffff;stroke-width:0.0780799"
       d="m 101.65076,44.59702 c 0.52024,0.39245 1.29218,0.0504 1.30579,-0.41355 0.016,-0.54471 -0.4368,-0.91399 -1.04589,-0.75435 -0.57961,0.15192 -0.81512,0.74905 -0.2599,1.1679 z"
       id="path1-70"
       sodipodi:nodetypes="ssss" /><path
       style="fill:#ffffff;stroke-width:0.0410238"
       d="m 97.26337,16.365535 c 0.266089,0.211814 0.660916,0.0272 0.667878,-0.223202 0.0082,-0.293992 -0.22341,-0.493301 -0.534942,-0.40714 -0.296458,0.08199 -0.416915,0.404279 -0.132936,0.630342 z"
       id="path1-20"
       sodipodi:nodetypes="ssss" /><path
       style="fill:#ffffff;stroke-width:0.0410238"
       d="m 93.030037,8.6926152 c 0.266089,0.2118142 0.660916,0.027202 0.667878,-0.2232023 0.0082,-0.2939924 -0.22341,-0.4933012 -0.534942,-0.4071398 -0.296458,0.081995 -0.416915,0.4042792 -0.132936,0.6303421 z"
       id="path1-31"
       sodipodi:nodetypes="ssss" /><path
       style="fill:#ffffff;stroke-width:0.0493287"
       d="m 93.758392,33.666932 c 0.291504,0.279552 0.724041,0.0359 0.731669,-0.294583 0.009,-0.388012 -0.244749,-0.65106 -0.586037,-0.537344 -0.324774,0.108217 -0.456736,0.533569 -0.145632,0.831927 z"
       id="path1-48"
       sodipodi:nodetypes="ssss" /><path
       style="fill:#ffffff;stroke-width:0.0512524"
       d="m 81.195352,31.745502 c 0.342334,0.256973 0.850294,0.033 0.859251,-0.270789 0.01052,-0.356672 -0.287425,-0.598474 -0.688224,-0.493943 -0.381406,0.09948 -0.536379,0.490472 -0.171027,0.764732 z"
       id="path1-45"
       sodipodi:nodetypes="ssss" /><path
       style="fill:#ffffff;stroke-width:0.0780799"
       d="m 81.542422,48.0366 c 0.52024,0.39245 1.292179,0.0504 1.305791,-0.41355 0.01599,-0.54471 -0.436796,-0.91399 -1.045884,-0.75435 -0.579616,0.15192 -0.815126,0.74905 -0.259907,1.1679 z"
       id="path1-106"
       sodipodi:nodetypes="ssss" /><path
       style="fill:#ffffff;stroke-width:0.043155"
       d="m 71.06962,56.307748 c 0.266089,0.234394 0.660916,0.0301 0.667878,-0.246995 0.0082,-0.325333 -0.22341,-0.545888 -0.534942,-0.450542 -0.296458,0.09074 -0.416915,0.447376 -0.132936,0.697537 z"
       id="path1-034"
       sodipodi:nodetypes="ssss" /><path
       style="fill:#ffffff;stroke-width:0.0429383"
       d="m 64.20586,6.0467852 c 0.291504,0.2118142 0.724041,0.027202 0.731668,-0.2232023 0.009,-0.2939924 -0.244748,-0.4933012 -0.586036,-0.4071398 -0.324774,0.081995 -0.456736,0.4042792 -0.145632,0.6303421 z"
       id="path1-222"
       sodipodi:nodetypes="ssss" /><path
       style="fill:#ffffff;stroke-width:0.0489489"
       d="m 72.96792,10.005668 c 0.342334,0.234394 0.850294,0.0301 0.859251,-0.2469955 0.01052,-0.325332 -0.287425,-0.5458872 -0.688224,-0.4505411 -0.381406,0.090735 -0.536379,0.4473757 -0.171027,0.6975366 z"
       id="path1-132"
       sodipodi:nodetypes="ssss" /><path
       style="fill:#ffffff;stroke-width:0.043155"
       d="m 70.540454,74.299418 c 0.266089,0.234394 0.660916,0.0301 0.667878,-0.246995 0.0082,-0.325333 -0.22341,-0.545888 -0.534942,-0.450542 -0.296458,0.09074 -0.416915,0.447376 -0.132936,0.697537 z"
       id="path1-53"
       sodipodi:nodetypes="ssss" /><path
       style="fill:#ffffff;stroke-width:0.0429383"
       d="m 58.120443,46.263455 c 0.291504,0.211814 0.724041,0.0272 0.731668,-0.223202 0.009,-0.293992 -0.244748,-0.493301 -0.586036,-0.40714 -0.324774,0.08199 -0.456736,0.404279 -0.145632,0.630342 z"
       id="path1-03"
       sodipodi:nodetypes="ssss" /><path
       style="fill:#ffffff;stroke-width:0.0451859"
       d="m 47.521704,50.212471 c 0.266089,0.256974 0.660916,0.033 0.667878,-0.270789 0.0082,-0.356672 -0.22341,-0.598473 -0.534942,-0.493942 -0.296458,0.09948 -0.416915,0.490472 -0.132936,0.764731 z"
       id="path1-303"
       sodipodi:nodetypes="ssss" /><path
       style="fill:#ffffff;stroke-width:0.044771"
       d="m 61.046265,22.980115 c 0.316919,0.211814 0.787168,0.0272 0.79546,-0.223202 0.0097,-0.293992 -0.266087,-0.493301 -0.63713,-0.40714 -0.35309,0.082 -0.496558,0.404279 -0.15833,0.630342 z"
       id="path1-30"
       sodipodi:nodetypes="ssss" /><path
       style="fill:#ffffff;stroke-width:0.0555736"
       d="m 57.357503,30.878148 c 0.342334,0.302132 0.850294,0.0388 0.859251,-0.318377 0.01052,-0.419351 -0.287425,-0.703645 -0.688224,-0.580744 -0.381406,0.116957 -0.536379,0.576664 -0.171027,0.899121 z"
       id="path1-444"
       sodipodi:nodetypes="ssss" /><path
       style="fill:#ffffff;stroke-width:0.0451859"
       d="M 4.1300374,8.9374714 C 4.3961264,9.1944445 4.7909528,8.9704729 4.7979149,8.6666822 4.8060934,8.3100104 4.5745053,8.0682088 4.2629729,8.1727398 3.9665147,8.2722158 3.8460575,8.6632118 4.1300374,8.9374714 Z"
       id="path1-58"
       sodipodi:nodetypes="ssss" /><path
       style="fill:#ffffff;stroke-width:0.0575996"
       d="m 8.6357074,19.236488 c 0.3677494,0.302132 0.9134209,0.0388 0.923043,-0.318377 0.011303,-0.419351 -0.3087642,-0.703645 -0.7393188,-0.580744 -0.4097214,0.116957 -0.5761997,0.576664 -0.1837242,0.899121 z"
       id="path1-34"
       sodipodi:nodetypes="ssss" /><path
       style="fill:#ffffff;stroke-width:0.0507334"
       d="m 4.191658,45.459838 c 0.3677494,0.234394 0.9134209,0.0301 0.923043,-0.246995 C 5.126004,44.88751 4.8059368,44.666955 4.3753821,44.762301 3.9656608,44.853037 3.7991825,45.209677 4.191658,45.459838 Z"
       id="path1-44"
       sodipodi:nodetypes="ssss" /><path
       style="fill:#ffffff;stroke-width:0.0597132"
       d="m 2.074991,66.057871 c 0.3677494,0.324711 0.9134209,0.0417 0.923043,-0.34217 C 3.009337,65.26501 2.6892698,64.959469 2.2587151,65.091555 1.8489938,65.217253 1.6825155,65.711316 2.074991,66.057871 Z"
       id="path1-64"
       sodipodi:nodetypes="ssss" /><path
       style="fill:#ffffff;stroke-width:0.0429383"
       d="m 44.891276,33.828035 c 0.291504,0.211814 0.724041,0.0272 0.731668,-0.223202 0.009,-0.293992 -0.244748,-0.493301 -0.586036,-0.40714 -0.324774,0.08199 -0.456736,0.404279 -0.145632,0.630342 z"
       id="path1-29"
       sodipodi:nodetypes="ssss" /><path
       style="fill:#ffffff;stroke-width:0.0948724"
       d="m 41.134322,13.987518 c 0.596485,0.505348 1.481558,0.0649 1.497165,-0.532517 0.01833,-0.701408 -0.500812,-1.17692 -1.199167,-0.971356 -0.664563,0.195623 -0.934589,0.964531 -0.297998,1.503873 z"
       id="path1-186"
       sodipodi:nodetypes="ssss" /><path
       style="fill:#ffffff;stroke-width:0.0780799"
       d="M 31.800756,5.96785 C 32.320996,6.3603 33.092935,6.01825 33.106547,5.5543 33.122537,5.00959 32.669751,4.64031 32.060663,4.79995 31.481047,4.95187 31.245537,5.549 31.800756,5.96785 Z"
       id="path1-28"
       sodipodi:nodetypes="ssss" /><path
       style="fill:#ffffff;stroke-width:0.0514341"
       d="m 15.802515,6.2817645 c 0.316919,0.2795526 0.787168,0.035901 0.79546,-0.2945827 0.0097,-0.3880115 -0.266087,-0.6510595 -0.63713,-0.5373436 -0.35309,0.1082166 -0.496558,0.5335683 -0.15833,0.8319263 z"
       id="path1-163"
       sodipodi:nodetypes="ssss" /><path
       style="fill:#ffffff;stroke-width:0.0531209"
       d="m 20.860408,31.956221 c 0.367749,0.256974 0.913421,0.033 0.923043,-0.270789 0.0113,-0.356672 -0.308764,-0.598473 -0.739319,-0.493942 -0.409721,0.09948 -0.576199,0.490472 -0.183724,0.764731 z"
       id="path1-25"
       sodipodi:nodetypes="ssss" /><path
       style="fill:#ffffff;stroke-width:0.055433"
       d="m 35.117098,52.299531 c 0.316919,0.324711 0.787168,0.0417 0.79546,-0.34217 0.0097,-0.450691 -0.266087,-0.756232 -0.63713,-0.624146 -0.35309,0.125698 -0.496558,0.619761 -0.15833,0.966316 z"
       id="path1-57"
       sodipodi:nodetypes="ssss" /><path
       style="fill:#ffffff;stroke-width:0.0470969"
       d="m 39.879598,70.859838 c 0.316919,0.234394 0.787168,0.0301 0.79546,-0.246995 0.0097,-0.325333 -0.266087,-0.545888 -0.63713,-0.450542 -0.35309,0.09074 -0.496558,0.447376 -0.15833,0.697537 z"
       id="path1-99"
       sodipodi:nodetypes="ssss" /><path
       style="fill:#ffffff;stroke-width:0.0493132"
       d="m 17.390015,76.406221 c 0.316919,0.256974 0.787168,0.033 0.79546,-0.270789 0.0097,-0.356672 -0.266087,-0.598473 -0.63713,-0.493942 -0.35309,0.09948 -0.496558,0.490472 -0.15833,0.764731 z"
       id="path1-839"
       sodipodi:nodetypes="ssss" /><path
       style="fill:#ffffff;stroke-width:0.0780799"
       d="m 20.688256,60.47202 c 0.52024,0.39245 1.292179,0.0504 1.305791,-0.41355 0.01599,-0.54471 -0.436796,-0.91399 -1.045884,-0.75435 -0.579616,0.15192 -0.815126,0.74905 -0.259907,1.1679 z"
       id="path1-49"
       sodipodi:nodetypes="ssss" /><path
       style="fill:#ffffff;stroke-width:0.0780799"
       d="m 30.213256,97.2491 c 0.52024,0.39245 1.292179,0.0504 1.305791,-0.41355 0.01599,-0.54471 -0.436796,-0.91399 -1.045884,-0.75435 -0.579616,0.15192 -0.815126,0.74905 -0.259907,1.1679 z"
       id="path1-69"
       sodipodi:nodetypes="ssss" /><path
       style="fill:#ffffff;stroke-width:0.0514341"
       d="m 37.762931,104.44218 c 0.316919,0.27956 0.787168,0.0359 0.79546,-0.29458 0.0097,-0.38801 -0.266087,-0.65106 -0.63713,-0.53734 -0.35309,0.10821 -0.496558,0.53357 -0.15833,0.83192 z"
       id="path1-22"
       sodipodi:nodetypes="ssss" /><path
       style="fill:#ffffff;stroke-width:0.0429738"
       d="m 39.039632,113.1833 c 0.240674,0.25697 0.597789,0.033 0.604086,-0.27079 0.0074,-0.35667 -0.202071,-0.59847 -0.483847,-0.49394 -0.268143,0.0995 -0.377095,0.49047 -0.120239,0.76473 z"
       id="path1-525"
       sodipodi:nodetypes="ssss" /><path
       style="fill:#ffffff;stroke-width:0.0489489"
       d="m 38.83667,135.68275 c 0.342334,0.23439 0.850294,0.0301 0.859251,-0.247 0.01052,-0.32533 -0.287425,-0.54588 -0.688224,-0.45054 -0.381406,0.0907 -0.536379,0.44738 -0.171027,0.69754 z"
       id="path1-181"
       sodipodi:nodetypes="ssss" /><path
       style="fill:#ffffff;stroke-width:0.0531209"
       d="m 13.398207,101.5955 c 0.36775,0.25698 0.913421,0.033 0.923043,-0.27079 0.0113,-0.35667 -0.308764,-0.59847 -0.739318,-0.49394 -0.409722,0.0995 -0.5762,0.49047 -0.183725,0.76473 z"
       id="path1-52"
       sodipodi:nodetypes="ssss" /><path
       style="fill:#ffffff;stroke-width:0.0780799"
       d="m 19.100756,110.74285 c 0.52024,0.39245 1.292179,0.0504 1.305791,-0.41355 0.01599,-0.54471 -0.436796,-0.91399 -1.045884,-0.75435 -0.579616,0.15192 -0.815126,0.74905 -0.259907,1.1679 z"
       id="path1-19"
       sodipodi:nodetypes="ssss" /><path
       style="fill:#ffffff;stroke-width:0.0780799"
       d="m 14.867422,118.15118 c 0.52024,0.39245 1.292179,0.0504 1.305791,-0.41355 0.01599,-0.54471 -0.436796,-0.91399 -1.045884,-0.75435 -0.579616,0.15192 -0.815126,0.74905 -0.259907,1.1679 z"
       id="path1-46"
       sodipodi:nodetypes="ssss" /><path
       style="fill:#ffffff;stroke-width:0.0470969"
       d="m 8.6587647,125.62859 c 0.3169192,0.23439 0.7871681,0.0301 0.7954602,-0.247 0.00974,-0.32533 -0.2660868,-0.54588 -0.6371304,-0.45054 -0.3530898,0.0907 -0.4965575,0.44738 -0.1583298,0.69754 z"
       id="path1-26"
       sodipodi:nodetypes="ssss" /><path
       style="fill:#ffffff;stroke-width:0.045169"
       d="m 28.222526,141.50359 c 0.291504,0.23439 0.724041,0.0301 0.731668,-0.247 0.009,-0.32533 -0.244748,-0.54588 -0.586036,-0.45054 -0.324774,0.0907 -0.456736,0.44738 -0.145632,0.69754 z"
       id="path1-24"
       sodipodi:nodetypes="ssss" /><path
       style="fill:#ffffff;stroke-width:0.0387756"
       d="m 15.771704,133.58582 c 0.266089,0.18924 0.660916,0.0243 0.667878,-0.19941 0.0082,-0.26265 -0.22341,-0.44071 -0.534942,-0.36374 -0.296458,0.0733 -0.416915,0.36119 -0.132936,0.56315 z"
       id="path1-81"
       sodipodi:nodetypes="ssss" /><path
       style="fill:#ffffff;stroke-width:0.0429383"
       d="m 4.1454425,151.30304 c 0.2915041,0.21181 0.7240418,0.0272 0.7316689,-0.22321 0.00896,-0.29399 -0.2447482,-0.4933 -0.5860362,-0.40714 -0.324774,0.082 -0.4567364,0.40428 -0.1456327,0.63035 z"
       id="path1-82"
       sodipodi:nodetypes="ssss" /><path
       style="fill:#ffffff;stroke-width:0.0470969"
       d="m 11.833765,155.5265 c 0.316919,0.23439 0.787168,0.0301 0.79546,-0.247 0.0097,-0.32533 -0.266087,-0.54588 -0.63713,-0.45054 -0.35309,0.0907 -0.496558,0.44738 -0.15833,0.69754 z"
       id="path1-98"
       sodipodi:nodetypes="ssss" /><path
       style="fill:#ffffff;stroke-width:0.0780799"
       d="m 28.096589,161.80743 c 0.52024,0.39245 1.292179,0.0504 1.305791,-0.41355 0.01599,-0.54471 -0.436796,-0.91399 -1.045884,-0.75435 -0.579616,0.15192 -0.815126,0.74905 -0.259907,1.1679 z"
       id="path1-88"
       sodipodi:nodetypes="ssss" /><path
       style="fill:#ffffff;stroke-width:0.0493287"
       d="m 5.2037755,231.70676 c 0.2915041,0.27956 0.7240418,0.0359 0.7316689,-0.29458 0.00896,-0.38801 -0.2447482,-0.65106 -0.5860362,-0.53734 -0.324774,0.10821 -0.4567364,0.53357 -0.1456327,0.83192 z"
       id="path1-37"
       sodipodi:nodetypes="ssss" /><path
       style="fill:#ffffff;stroke-width:0.0482637"
       d="m 7.3375459,181.45147 c 0.3197209,0.244 0.7941269,0.0313 0.8024924,-0.25711 0.00983,-0.33866 -0.2684392,-0.56825 -0.6427629,-0.46899 -0.3562112,0.0944 -0.5009472,0.4657 -0.1597295,0.7261 z"
       id="path1-92"
       sodipodi:nodetypes="ssss" /><path
       style="fill:#ffffff;stroke-width:0.0443188"
       d="m 9.4113271,195.48272 c 0.2695911,0.24399 0.6696139,0.0313 0.6766679,-0.25711 0.0083,-0.33866 -0.2263501,-0.56825 -0.5419827,-0.469 -0.3003601,0.0944 -0.4224026,0.4657 -0.1346852,0.72611 z"
       id="path1-83"
       sodipodi:nodetypes="ssss" /><path
       style="fill:#ffffff;stroke-width:0.0412935"
       d="m 25.573539,179.61885 c 0.286301,0.19946 0.711118,0.0256 0.718609,-0.21018 0.0088,-0.27684 -0.24038,-0.46452 -0.575576,-0.38339 -0.318977,0.0772 -0.448584,0.3807 -0.143033,0.59357 z"
       id="path1-651"
       sodipodi:nodetypes="ssss" /><path
       style="fill:#ffffff;stroke-width:0.0428027"
       d="m 17.836038,218.1457 c 0.286301,0.2143 0.711119,0.0275 0.71861,-0.22583 0.0088,-0.29744 -0.24038,-0.4991 -0.575576,-0.41192 -0.318977,0.083 -0.448584,0.40903 -0.143034,0.63775 z"
       id="path1-10"
       sodipodi:nodetypes="ssss" /><path
       style="fill:#ffffff;stroke-width:0.0424815"
       d="m 20.821167,207.92926 c 0.303011,0.19946 0.752623,0.0256 0.760551,-0.21018 0.0093,-0.27684 -0.254409,-0.46452 -0.609169,-0.38339 -0.337594,0.0772 -0.474766,0.3807 -0.151382,0.59357 z"
       id="path1-778"
       sodipodi:nodetypes="ssss" /><path
       style="fill:#ffffff;stroke-width:0.0455337"
       d="m 28.377418,189.61629 c 0.303011,0.22915 0.752622,0.0294 0.76055,-0.24147 0.0093,-0.31805 -0.254409,-0.53367 -0.609169,-0.44046 -0.337594,0.0887 -0.474766,0.43737 -0.151381,0.68193 z"
       id="path1-39"
       sodipodi:nodetypes="ssss" /><path
       style="fill:#ffffff;stroke-width:0.0467724"
       d="m 11.666713,175.06421 c 0.319721,0.22915 0.794127,0.0294 0.802492,-0.24147 0.0098,-0.31805 -0.268439,-0.53367 -0.642763,-0.44046 -0.356211,0.0887 -0.500947,0.43737 -0.159729,0.68193 z"
       id="path1-189"
       sodipodi:nodetypes="ssss" /><path
       style="fill:#ffffff;stroke-width:0.0412935"
       d="m 14.725622,192.84801 c 0.286301,0.19946 0.711118,0.0256 0.718609,-0.21018 0.0088,-0.27684 -0.24038,-0.46452 -0.575576,-0.38339 -0.318977,0.0772 -0.448584,0.3807 -0.143033,0.59357 z"
       id="path1-01"
       sodipodi:nodetypes="ssss" /><path
       style="fill:#ffffff;stroke-width:0.0482637"
       d="m 54.793796,158.17647 c 0.319721,0.24399 0.794127,0.0313 0.802492,-0.25711 0.0098,-0.33866 -0.268439,-0.56825 -0.642763,-0.469 -0.356211,0.0945 -0.500947,0.4657 -0.159729,0.72611 z"
       id="path1-78"
       sodipodi:nodetypes="ssss" /><path
       style="fill:#ffffff;stroke-width:0.0483938"
       d="m 46.898251,172.24499 c 0.303011,0.25884 0.752622,0.0332 0.76055,-0.27276 0.0093,-0.35926 -0.254409,-0.60282 -0.609169,-0.49753 -0.337594,0.1002 -0.474766,0.49403 -0.151381,0.77029 z"
       id="path1-12"
       sodipodi:nodetypes="ssss" /><path
       style="fill:#ffffff;stroke-width:0.0363925"
       d="m 44.094372,176.19873 c 0.286301,0.15492 0.711118,0.0199 0.718609,-0.16325 0.0088,-0.21503 -0.24038,-0.3608 -0.575576,-0.29779 -0.318977,0.06 -0.448584,0.29569 -0.143033,0.46104 z"
       id="path1-66"
       sodipodi:nodetypes="ssss" /><path
       style="fill:#ffffff;stroke-width:0.0780799"
       d="m 41.854922,181.91577 c 0.52024,0.39245 1.292179,0.0504 1.305791,-0.41355 0.01599,-0.54471 -0.436796,-0.91399 -1.045884,-0.75435 -0.579616,0.15192 -0.815126,0.74905 -0.259907,1.1679 z"
       id="path1-9"
       sodipodi:nodetypes="ssss" /><path
       style="fill:#ffffff;stroke-width:0.0385503"
       d="m 93.284243,197.617 c 0.269591,0.18461 0.669614,0.0237 0.676668,-0.19454 0.0083,-0.25623 -0.22635,-0.42995 -0.541983,-0.35485 -0.30036,0.0715 -0.422402,0.35236 -0.134685,0.54939 z"
       id="path1-77"
       sodipodi:nodetypes="ssss" /><path
       style="fill:#ffffff;stroke-width:0.0346007"
       d="m 82.520237,203.70891 c 0.236171,0.16977 0.586605,0.0218 0.592784,-0.17889 0.0073,-0.23564 -0.19829,-0.39538 -0.474795,-0.32632 -0.263126,0.0657 -0.37004,0.32402 -0.117989,0.50521 z"
       id="path1-60"
       sodipodi:nodetypes="ssss" /><path
       style="fill:#ffffff;stroke-width:0.0467724"
       d="m 79.400046,184.10379 c 0.319721,0.22915 0.794127,0.0294 0.802492,-0.24147 0.0098,-0.31805 -0.268439,-0.53367 -0.642763,-0.44046 -0.356211,0.0887 -0.500947,0.43737 -0.159729,0.68193 z"
       id="path1-2"
       sodipodi:nodetypes="ssss" /><path
       style="fill:#ffffff;stroke-width:0.0780799"
       d="m 93.184089,179.53452 c 0.52024,0.39245 1.292179,0.0504 1.305791,-0.41355 0.01599,-0.54471 -0.436796,-0.91399 -1.045884,-0.75435 -0.579616,0.15192 -0.815126,0.74905 -0.259907,1.1679 z"
       id="path1-165"
       sodipodi:nodetypes="ssss" /><path
       style="fill:#ffffff;stroke-width:0.0443188"
       d="m 108.36549,196.27647 c 0.26959,0.24399 0.66962,0.0313 0.67667,-0.25711 0.008,-0.33866 -0.22635,-0.56825 -0.54198,-0.469 -0.30036,0.0944 -0.42241,0.4657 -0.13469,0.72611 z"
       id="path1-73"
       sodipodi:nodetypes="ssss" /><path
       style="fill:#ffffff;stroke-width:0.0370145"
       d="m 116.44267,284.38562 c 0.23566,0.19471 0.58532,0.025 0.59148,-0.20518 0.007,-0.27024 -0.19785,-0.45346 -0.47374,-0.37426 -0.26255,0.0754 -0.36923,0.37163 -0.11774,0.57944 z"
       id="path1-15"
       sodipodi:nodetypes="ssss" /><path
       style="fill:#ffffff;stroke-width:0.0449701"
       d="m 105.59779,211.62757 c 0.31813,0.21288 0.79018,0.0273 0.7985,-0.22434 0.01,-0.29548 -0.26711,-0.49581 -0.63956,-0.40921 -0.35444,0.0824 -0.49846,0.40633 -0.15894,0.63355 z"
       id="path1-0"
       sodipodi:nodetypes="ssss" /><path
       style="fill:#ffffff;stroke-width:0.0357482"
       d="m 97.531227,211.12254 c 0.271489,0.15764 0.674327,0.0202 0.681431,-0.16612 0.0083,-0.2188 -0.227944,-0.36713 -0.545798,-0.30301 -0.302474,0.061 -0.425375,0.30088 -0.135633,0.46913 z"
       id="path1-13"
       sodipodi:nodetypes="ssss" /><path
       style="fill:#ffffff;stroke-width:0.0489529"
       d="m 108.15226,251.56757 c 0.33367,0.24052 0.82879,0.0309 0.83752,-0.25344 0.0103,-0.33383 -0.28016,-0.56014 -0.67082,-0.46231 -0.37176,0.0931 -0.52282,0.45906 -0.1667,0.71575 z"
       id="path1-7"
       sodipodi:nodetypes="ssss" /><path
       style="fill:#ffffff;stroke-width:0.0475265"
       d="m 99.156422,236.75695 c 0.333677,0.2267 0.828788,0.0291 0.837524,-0.23889 0.01026,-0.31466 -0.28016,-0.52797 -0.670822,-0.43576 -0.37176,0.0878 -0.522814,0.4327 -0.166702,0.67465 z"
       id="path1-618"
       sodipodi:nodetypes="ssss" /><path
       style="fill:#ffffff;stroke-width:0.0500803"
       d="m 83.820012,261.88632 c 0.349223,0.24052 0.867405,0.0309 0.876543,-0.25344 0.01073,-0.33383 -0.29321,-0.56014 -0.702075,-0.46231 -0.389081,0.0931 -0.547172,0.45906 -0.174468,0.71575 z"
       id="path1-4"
       sodipodi:nodetypes="ssss" /><path
       style="fill:#ffffff;stroke-width:0.0427159"
       d="m 89.800861,259.25257 c 0.287036,0.21288 0.712943,0.0273 0.720453,-0.22434 0.0088,-0.29548 -0.240996,-0.49581 -0.577053,-0.40921 -0.319795,0.0824 -0.449735,0.40633 -0.1434,0.63355 z"
       id="path1-61"
       sodipodi:nodetypes="ssss" /><path
       style="fill:#ffffff;stroke-width:0.0780799"
       d="m 81.807006,243.03452 c 0.52024,0.39245 1.292179,0.0504 1.305791,-0.41355 0.01599,-0.54471 -0.436796,-0.91399 -1.045884,-0.75435 -0.579616,0.15192 -0.815126,0.74905 -0.259907,1.1679 z"
       id="path1-65"
       sodipodi:nodetypes="ssss" /><path
       style="fill:#ffffff;stroke-width:0.0441562"
       d="m 75.306227,218.49078 c 0.271489,0.24051 0.674327,0.0309 0.681431,-0.25344 0.0083,-0.33383 -0.227944,-0.56015 -0.545798,-0.46231 -0.302474,0.0931 -0.425375,0.45906 -0.135633,0.71575 z"
       id="path1-6"
       sodipodi:nodetypes="ssss" /><path
       style="fill:#ffffff;stroke-width:0.0472727"
       d="m 66.10325,203.56301 c 0.366251,0.20434 0.909699,0.0263 0.919282,-0.21532 0.01126,-0.28362 -0.307506,-0.47589 -0.736307,-0.39277 -0.408052,0.0791 -0.573852,0.39001 -0.182975,0.60809 z"
       id="path1-86"
       sodipodi:nodetypes="ssss" /><path
       style="fill:#ffffff;stroke-width:0.0465529"
       d="m 67.667415,230.60304 c 0.327754,0.22144 0.814079,0.0284 0.822655,-0.23335 0.01007,-0.30735 -0.275184,-0.51572 -0.658912,-0.42564 -0.365161,0.0857 -0.513534,0.42265 -0.163743,0.65899 z"
       id="path1-8"
       sodipodi:nodetypes="ssss" /><path
       style="fill:#ffffff;stroke-width:0.0420109"
       d="m 66.321163,214.67551 c 0.289257,0.20434 0.718459,0.0263 0.726028,-0.21532 0.0089,-0.28362 -0.242861,-0.47589 -0.581518,-0.39277 -0.32227,0.0791 -0.453215,0.39001 -0.14451,0.60809 z"
       id="path1-3"
       sodipodi:nodetypes="ssss" /><path
       style="fill:#ffffff;stroke-width:0.0510759"
       d="m 46.524083,200.49306 c 0.366251,0.23854 0.909699,0.0306 0.919282,-0.25137 0.01126,-0.33108 -0.307506,-0.55554 -0.736307,-0.45851 -0.408052,0.0923 -0.573852,0.45529 -0.182975,0.70988 z"
       id="path1-54"
       sodipodi:nodetypes="ssss" /><path
       style="fill:#ffffff;stroke-width:0.0780799"
       d="m 37.357006,227.15952 c 0.52024,0.39245 1.292179,0.0504 1.305791,-0.41355 0.01599,-0.54471 -0.436796,-0.91399 -1.045884,-0.75435 -0.579616,0.15192 -0.815126,0.74905 -0.259907,1.1679 z"
       id="path1-18"
       sodipodi:nodetypes="ssss" /><path
       style="fill:#ffffff;stroke-width:0.0467106"
       d="m 38.558139,247.07477 c 0.319326,0.22883 0.793145,0.0294 0.8015,-0.24113 0.0098,-0.3176 -0.268107,-0.53292 -0.641968,-0.43984 -0.35577,0.0886 -0.500327,0.43675 -0.159532,0.68097 z"
       id="path1-16"
       sodipodi:nodetypes="ssss" /><path
       style="fill:#ffffff;stroke-width:0.0780799"
       d="m 42.913256,266.31785 c 0.52024,0.39245 1.292179,0.0504 1.305791,-0.41355 0.01599,-0.54471 -0.436796,-0.91399 -1.045884,-0.75435 -0.579616,0.15192 -0.815126,0.74905 -0.259907,1.1679 z"
       id="path1-14"
       sodipodi:nodetypes="ssss" /><path
       style="fill:#ffffff;stroke-width:0.0512614"
       d="m 59.789194,257.3778 c 0.332341,0.2648 0.825472,0.034 0.834167,-0.27903 0.01021,-0.36752 -0.279034,-0.61668 -0.668133,-0.50897 -0.370271,0.1025 -0.520719,0.5054 -0.166034,0.788 z"
       id="path1-1"
       sodipodi:nodetypes="ssss" /><path
       style="fill:#ffffff;stroke-width:0.0457065"
       d="m 55.611364,217.97205 c 0.310234,0.22551 0.770565,0.029 0.778682,-0.23764 0.0095,-0.31301 -0.260475,-0.52521 -0.623692,-0.43348 -0.345642,0.0873 -0.486084,0.43043 -0.15499,0.67112 z"
       id="path1-5"
       sodipodi:nodetypes="ssss" /><path
       style="opacity:1;fill:#ffffff;stroke-width:0.0780799"
       d="m 51.5844,239.62842 c 0.52024,0.39245 1.292179,0.0504 1.305791,-0.41355 0.01599,-0.54471 -0.436796,-0.91399 -1.045884,-0.75435 -0.579616,0.15192 -0.815126,0.74905 -0.259907,1.1679 z"
       id="path1"
       sodipodi:nodetypes="ssss" /><path
       style="fill:#ffffff;stroke-width:0.0384283"
       d="m 38.253706,80.402041 c 0.253581,0.195027 0.629848,0.02505 0.636483,-0.205513 0.0078,-0.270693 -0.212908,-0.454206 -0.509797,-0.374873 -0.282522,0.0755 -0.397317,0.372239 -0.126686,0.580386 z"
       id="path1-450"
       sodipodi:nodetypes="ssss" /><path
       style="fill:#ffffff;stroke-width:0.0780799"
       d="m 200.34034,294.0991 c 0.52024,0.39245 1.29218,0.0504 1.30579,-0.41355 0.016,-0.54471 -0.4368,-0.91399 -1.04588,-0.75435 -0.57962,0.15192 -0.81513,0.74905 -0.25991,1.1679 z"
       id="path1-80-8"
       sodipodi:nodetypes="ssss" /><path
       style="fill:#ffffff;stroke-width:0.0625564"
       d="m 166.64471,170.55367 c 0.3659,0.35817 0.90882,0.046 0.9184,-0.37743 0.0113,-0.49713 -0.30721,-0.83415 -0.7356,-0.68846 -0.40767,0.13865 -0.57331,0.68363 -0.1828,1.06589 z"
       id="path1-94-8"
       sodipodi:nodetypes="ssss" /><path
       style="fill:#ffffff;stroke-width:0.0436555"
       d="m 191.73335,269.56775 c 0.28873,0.22105 0.71715,0.0284 0.7247,-0.23294 0.009,-0.30681 -0.24241,-0.51481 -0.58046,-0.42489 -0.32168,0.0856 -0.45239,0.42191 -0.14424,0.65783 z"
       id="path1-268-0"
       sodipodi:nodetypes="ssss" /><path
       style="fill:#ffffff;stroke-width:0.0451734"
       d="m 166.64471,267.27364 c 0.3659,0.18677 0.90882,0.024 0.9184,-0.19682 0.0113,-0.25923 -0.30721,-0.43497 -0.7356,-0.359 -0.40767,0.0723 -0.57331,0.35648 -0.1828,0.55582 z"
       id="path1-481-5"
       sodipodi:nodetypes="ssss" /><path
       style="fill:#ffffff;stroke-width:0.0516706"
       d="m 170.37226,272.47817 c 0.40448,0.22105 1.00467,0.0284 1.01525,-0.23294 0.0124,-0.30681 -0.33961,-0.51481 -0.81317,-0.42489 -0.45065,0.0856 -0.63376,0.42191 -0.20208,0.65783 z"
       id="path1-59-1"
       sodipodi:nodetypes="ssss" /><path
       style="fill:#ffffff;stroke-width:0.0780799"
       d="m 175.73409,290.13035 c 0.52024,0.39245 1.29218,0.0504 1.30579,-0.41355 0.016,-0.54471 -0.4368,-0.91399 -1.04588,-0.75435 -0.57962,0.15192 -0.81513,0.74905 -0.25991,1.1679 z"
       id="path1-314-4"
       sodipodi:nodetypes="ssss" /><path
       style="fill:#ffffff;stroke-width:0.0563845"
       d="m 151.22472,282.46017 c 0.48165,0.22105 1.19634,0.0284 1.20894,-0.23293 0.0148,-0.30682 -0.4044,-0.51482 -0.96831,-0.4249 -0.53663,0.0856 -0.75467,0.42191 -0.24063,0.65783 z"
       id="path1-019-3"
       sodipodi:nodetypes="ssss" /><path
       style="fill:#ffffff;stroke-width:0.0780799"
       d="m 140.80909,293.30535 c 0.52024,0.39245 1.29218,0.0504 1.30579,-0.41355 0.016,-0.54471 -0.4368,-0.91399 -1.04588,-0.75435 -0.57962,0.15192 -0.81513,0.74905 -0.25991,1.1679 z"
       id="path1-7743-6"
       sodipodi:nodetypes="ssss" /><path
       style="fill:#ffffff;stroke-width:0.0528176"
       d="m 115.58012,285.95694 c 0.3659,0.25533 0.90883,0.0328 0.91841,-0.26906 0.0113,-0.35439 -0.30722,-0.59465 -0.73561,-0.49079 -0.40766,0.0988 -0.5733,0.48734 -0.1828,0.75985 z"
       id="path1-74-3"
       sodipodi:nodetypes="ssss" /><path
       style="fill:#ffffff;stroke-width:0.0408179"
       d="m 148.60493,189.64544 c 0.3659,0.15249 0.90883,0.0196 0.91841,-0.16069 0.0113,-0.21165 -0.30722,-0.35514 -0.73561,-0.29311 -0.40766,0.059 -0.5733,0.29105 -0.1828,0.4538 z"
       id="path1-41-9"
       sodipodi:nodetypes="ssss" /><path
       style="fill:#ffffff;stroke-width:0.0516706"
       d="m 118.08097,239.06851 c 0.40449,0.22105 1.00467,0.0284 1.01525,-0.23293 0.0124,-0.30682 -0.33961,-0.51482 -0.81317,-0.4249 -0.45065,0.0856 -0.63376,0.42191 -0.20208,0.65783 z"
       id="path1-17-2"
       sodipodi:nodetypes="ssss" /><path
       style="fill:#ffffff;stroke-width:0.0780799"
       d="m 119.90701,259.70327 c 0.52024,0.39245 1.29218,0.0504 1.30579,-0.41355 0.016,-0.54471 -0.4368,-0.91399 -1.04589,-0.75435 -0.57961,0.15192 -0.81512,0.74905 -0.2599,1.1679 z"
       id="path1-771-1"
       sodipodi:nodetypes="ssss" /><path
       style="fill:#ffffff;stroke-width:0.0618998"
       d="m 126.47481,269.00863 c 0.44308,0.28961 1.10051,0.0372 1.1121,-0.30518 0.0136,-0.40197 -0.372,-0.67449 -0.89074,-0.55668 -0.49364,0.11211 -0.69422,0.55277 -0.22136,0.86186 z"
       id="path1-582-9"
       sodipodi:nodetypes="ssss" /><path
       style="fill:#ffffff;stroke-width:0.0540789"
       d="m 101.86856,270.09692 c 0.44307,0.22105 1.10051,0.0284 1.1121,-0.23294 0.0136,-0.30681 -0.372,-0.51481 -0.89074,-0.42489 -0.49364,0.0856 -0.69422,0.42191 -0.22136,0.65783 z"
       id="path1-925-8"
       sodipodi:nodetypes="ssss" /><path
       style="fill:#ffffff;stroke-width:0.058121"
       d="m 97.370647,290.19027 c 0.443071,0.25533 1.100505,0.0328 1.112098,-0.26906 0.01362,-0.35439 -0.372004,-0.59465 -0.890744,-0.49079 -0.493639,0.0988 -0.694215,0.48734 -0.221354,0.75985 z"
       id="path1-341-2"
       sodipodi:nodetypes="ssss" /><path
       style="fill:#ffffff;stroke-width:0.0469185"
       d="m 104.42085,244.41736 c 0.28873,0.25533 0.71715,0.0328 0.72471,-0.26906 0.009,-0.35439 -0.24242,-0.59465 -0.58047,-0.49079 -0.32168,0.0988 -0.45239,0.48734 -0.14424,0.75985 z"
       id="path1-50-3"
       sodipodi:nodetypes="ssss" /><path
       style="fill:#ffffff;stroke-width:0.0780799"
       d="m 129.69659,282.45744 c 0.52024,0.39245 1.29218,0.0504 1.30579,-0.41355 0.016,-0.54471 -0.4368,-0.91399 -1.04588,-0.75435 -0.57962,0.15192 -0.81513,0.74905 -0.25991,1.1679 z"
       id="path1-225-4"
       sodipodi:nodetypes="ssss" /><path
       style="fill:#ffffff;stroke-width:0.0780799"
       d="m 109.58826,277.43035 c 0.52024,0.39245 1.29218,0.0504 1.30579,-0.41355 0.016,-0.54471 -0.4368,-0.91399 -1.04589,-0.75435 -0.57961,0.15192 -0.81512,0.74905 -0.2599,1.1679 z"
       id="path1-35-0"
       sodipodi:nodetypes="ssss" /><path
       style="fill:#ffffff;stroke-width:0.0780799"
       d="m 154.56742,167.36369 c 0.52024,0.39245 1.29218,0.0504 1.30579,-0.41355 0.016,-0.54471 -0.43679,-0.91399 -1.04588,-0.75435 -0.57962,0.15192 -0.81513,0.74905 -0.25991,1.1679 z"
       id="path1-482-2"
       sodipodi:nodetypes="ssss" /><path
       style="fill:#ffffff;stroke-width:0.0737449"
       d="m 175.20492,156.53428 c 0.52024,0.35009 1.29218,0.045 1.30579,-0.3689 0.016,-0.4859 -0.43679,-0.81532 -1.04588,-0.67291 -0.57962,0.13552 -0.81513,0.66818 -0.25991,1.04181 z"
       id="path1-55-3"
       sodipodi:nodetypes="ssss" /><path
       style="fill:#ffffff;stroke-width:0.0501124"
       d="m 170.00788,139.59109 c 0.37717,0.22297 0.93683,0.0286 0.9467,-0.23497 0.0116,-0.30948 -0.31668,-0.5193 -0.75827,-0.42859 -0.42022,0.0863 -0.59096,0.42558 -0.18843,0.66356 z"
       id="path1-528-1"
       sodipodi:nodetypes="ssss" /><path
       style="fill:#ffffff;stroke-width:0.0664113"
       d="m 197.79116,84.019941 c 0.37636,0.39245 0.93482,0.0504 0.94466,-0.41355 0.0116,-0.54471 -0.31599,-0.91399 -0.75663,-0.75435 -0.41933,0.15192 -0.5897,0.74905 -0.18803,1.1679 z"
       id="path1-47-9"
       sodipodi:nodetypes="ssss" /><path
       style="fill:#ffffff;stroke-width:0.051923"
       d="m 170.19053,73.142159 c 0.30443,0.296583 0.75614,0.03809 0.7641,-0.312529 0.009,-0.411649 -0.25559,-0.690722 -0.61201,-0.570078 -0.33917,0.114809 -0.47699,0.566073 -0.15209,0.882607 z"
       id="path1-530-8"
       sodipodi:nodetypes="ssss" /><path
       style="fill:#ffffff;stroke-width:0.0427147"
       d="m 160.66553,87.664387 c 0.30443,0.200715 0.75614,0.02578 0.7641,-0.211508 0.009,-0.278588 -0.25559,-0.467453 -0.61201,-0.385807 -0.33917,0.0777 -0.47699,0.383097 -0.15209,0.597315 z"
       id="path1-95-9"
       sodipodi:nodetypes="ssss" /><path
       style="fill:#ffffff;stroke-width:0.0511354"
       d="m 170.35521,120.60226 c 0.37637,0.23267 0.93482,0.0299 0.94467,-0.24518 0.0116,-0.32294 -0.316,-0.54188 -0.75664,-0.44723 -0.41932,0.0901 -0.5897,0.44409 -0.18803,0.69241 z"
       id="path1-832-8"
       sodipodi:nodetypes="ssss" /><path
       style="fill:#ffffff;stroke-width:0.0367806"
       d="m 179.54126,88.095409 c 0.26845,0.16876 0.6668,0.02167 0.67382,-0.177833 0.008,-0.234235 -0.2254,-0.393031 -0.53971,-0.324383 -0.29909,0.06533 -0.42062,0.322104 -0.13411,0.502216 z"
       id="path1-731-9"
       sodipodi:nodetypes="ssss" /><path
       style="fill:#ffffff;stroke-width:0.0780799"
       d="m 177.05701,94.338691 c 0.52024,0.39245 1.29218,0.0504 1.30579,-0.41355 0.016,-0.54471 -0.4368,-0.91399 -1.04589,-0.75435 -0.57961,0.15192 -0.81512,0.74905 -0.2599,1.1679 z"
       id="path1-442-1"
       sodipodi:nodetypes="ssss" /><path
       style="fill:#ffffff;stroke-width:0.0710975"
       d="m 157.15938,98.836601 c 0.43135,0.39245 1.0714,0.0504 1.08269,-0.41355 0.0133,-0.54471 -0.36217,-0.91399 -0.86719,-0.75435 -0.48059,0.15192 -0.67586,0.74905 -0.2155,1.1679 z"
       id="path1-926-3"
       sodipodi:nodetypes="ssss" /><path
       style="fill:#ffffff;stroke-width:0.0674214"
       d="m 151.33855,131.39746 c 0.43135,0.35304 1.0714,0.0461 1.08268,-0.37193 0.0133,-0.48983 -0.36216,-0.8219 -0.86718,-0.67833 -0.48059,0.13642 -0.67586,0.67358 -0.2155,1.05022 z"
       id="path1-51-5"
       sodipodi:nodetypes="ssss" /><path
       style="fill:#ffffff;stroke-width:0.0421392"
       d="m 142.49954,112.92854 c 0.25358,0.23451 0.62985,0.0301 0.63648,-0.24712 0.008,-0.3255 -0.21291,-0.54617 -0.50979,-0.45077 -0.28253,0.0908 -0.39732,0.4476 -0.12669,0.69789 z"
       id="path1-162-1"
       sodipodi:nodetypes="ssss" /><path
       style="fill:#ffffff;stroke-width:0.0372045"
       d="m 145.96606,87.827626 c 0.29803,0.155543 0.74024,0.01997 0.74804,-0.163906 0.009,-0.215889 -0.25023,-0.362248 -0.59915,-0.298977 -0.33204,0.06021 -0.46695,0.296877 -0.14889,0.462883 z"
       id="path1-76-4"
       sodipodi:nodetypes="ssss" /><path
       style="fill:#ffffff;stroke-width:0.0372045"
       d="m 129.5619,46.288046 c 0.29802,0.155543 0.74023,0.01998 0.74803,-0.163906 0.009,-0.215889 -0.25022,-0.362248 -0.59914,-0.298977 -0.33204,0.06021 -0.46696,0.296877 -0.14889,0.462883 z"
       id="path1-203-2"
       sodipodi:nodetypes="ssss" /><path
       style="fill:#ffffff;stroke-width:0.0520515"
       d="m 130.40952,119.54312 c 0.38691,0.23451 0.96102,0.0301 0.97114,-0.24712 0.0119,-0.3255 -0.32485,-0.54617 -0.77784,-0.45077 -0.43107,0.0908 -0.60622,0.4476 -0.1933,0.69789 z"
       id="path1-71-5"
       sodipodi:nodetypes="ssss" /><path
       style="fill:#ffffff;stroke-width:0.0465316"
       d="m 195.47,54.730126 c 0.34234,0.211814 0.8503,0.0272 0.85925,-0.223202 0.0105,-0.293992 -0.28742,-0.493301 -0.68822,-0.40714 -0.38141,0.08199 -0.53638,0.404279 -0.17103,0.630342 z"
       id="path1-577-3"
       sodipodi:nodetypes="ssss" /><path
       style="fill:#ffffff;stroke-width:0.0390155"
       d="m 202.55213,68.223876 c 0.24068,0.211814 0.59779,0.0272 0.60409,-0.223202 0.007,-0.293992 -0.20207,-0.493301 -0.48385,-0.40714 -0.26814,0.08199 -0.37709,0.404279 -0.12024,0.630342 z"
       id="path1-129-8"
       sodipodi:nodetypes="ssss" /><path
       style="fill:#ffffff;stroke-width:0.0423175"
       d="m 188.57543,70.879573 c 0.31692,0.189235 0.78717,0.0243 0.79546,-0.199409 0.01,-0.262652 -0.26609,-0.440715 -0.63713,-0.363738 -0.35309,0.07325 -0.49656,0.361183 -0.15833,0.563147 z"
       id="path1-155-9"
       sodipodi:nodetypes="ssss" /><path
       style="fill:#ffffff;stroke-width:0.0405852"
       d="m 184.59128,55.533743 c 0.2915,0.189235 0.72404,0.0243 0.73166,-0.199409 0.009,-0.262652 -0.24474,-0.440715 -0.58603,-0.363738 -0.32478,0.07325 -0.45674,0.361183 -0.14563,0.563147 z"
       id="path1-302-2"
       sodipodi:nodetypes="ssss" /><path
       style="fill:#ffffff;stroke-width:0.0423175"
       d="m 200.2171,11.877493 c 0.31692,0.189235 0.78717,0.0243 0.79546,-0.199409 0.01,-0.262652 -0.26609,-0.440715 -0.63713,-0.363738 -0.35309,0.07325 -0.49656,0.361183 -0.15833,0.563147 z"
       id="path1-774-8"
       sodipodi:nodetypes="ssss" /><path
       style="fill:#ffffff;stroke-width:0.0472946"
       d="m 196.49752,30.633302 c 0.29151,0.256974 0.72405,0.033 0.73167,-0.270789 0.009,-0.356672 -0.24474,-0.598473 -0.58603,-0.493942 -0.32478,0.09948 -0.45674,0.490472 -0.14564,0.764731 z"
       id="path1-84-7"
       sodipodi:nodetypes="ssss" /><path
       style="fill:#ffffff;stroke-width:0.0780799"
       d="m 193.72576,44.332441 c 0.52024,0.39245 1.29218,0.0504 1.30579,-0.41355 0.016,-0.54471 -0.4368,-0.91399 -1.04589,-0.75435 -0.57961,0.15192 -0.81512,0.74905 -0.2599,1.1679 z"
       id="path1-70-0"
       sodipodi:nodetypes="ssss" /><path
       style="fill:#ffffff;stroke-width:0.0410238"
       d="m 189.33837,16.100956 c 0.26609,0.211814 0.66092,0.0272 0.66788,-0.223202 0.008,-0.293992 -0.22341,-0.493301 -0.53494,-0.40714 -0.29646,0.08199 -0.41692,0.404279 -0.13294,0.630342 z"
       id="path1-20-1"
       sodipodi:nodetypes="ssss" /><path
       style="fill:#ffffff;stroke-width:0.0410238"
       d="m 185.10504,8.4280364 c 0.26609,0.2118142 0.66091,0.027202 0.66788,-0.2232023 0.008,-0.2939924 -0.22341,-0.4933012 -0.53495,-0.4071398 -0.29645,0.081995 -0.41691,0.4042792 -0.13293,0.6303421 z"
       id="path1-31-4"
       sodipodi:nodetypes="ssss" /><path
       style="fill:#ffffff;stroke-width:0.0493287"
       d="m 185.83339,33.402353 c 0.29151,0.279552 0.72404,0.0359 0.73167,-0.294583 0.009,-0.388012 -0.24475,-0.65106 -0.58604,-0.537344 -0.32477,0.108217 -0.45673,0.533569 -0.14563,0.831927 z"
       id="path1-48-8"
       sodipodi:nodetypes="ssss" /><path
       style="fill:#ffffff;stroke-width:0.0512524"
       d="m 173.27035,31.480923 c 0.34234,0.256973 0.8503,0.033 0.85925,-0.270789 0.0105,-0.356672 -0.28742,-0.598474 -0.68822,-0.493943 -0.38141,0.09948 -0.53638,0.490472 -0.17103,0.764732 z"
       id="path1-45-1"
       sodipodi:nodetypes="ssss" /><path
       style="fill:#ffffff;stroke-width:0.0780799"
       d="m 173.61742,47.772021 c 0.52024,0.39245 1.29218,0.0504 1.30579,-0.41355 0.016,-0.54471 -0.43679,-0.91399 -1.04588,-0.75435 -0.57962,0.15192 -0.81513,0.74905 -0.25991,1.1679 z"
       id="path1-106-9"
       sodipodi:nodetypes="ssss" /><path
       style="fill:#ffffff;stroke-width:0.043155"
       d="m 163.14462,56.043169 c 0.26609,0.234394 0.66092,0.0301 0.66788,-0.246995 0.008,-0.325333 -0.22341,-0.545888 -0.53494,-0.450542 -0.29646,0.09074 -0.41692,0.447376 -0.13294,0.697537 z"
       id="path1-034-3"
       sodipodi:nodetypes="ssss" /><path
       style="fill:#ffffff;stroke-width:0.0429383"
       d="m 156.28086,5.7822064 c 0.2915,0.2118142 0.72404,0.027202 0.73167,-0.2232023 0.009,-0.2939924 -0.24475,-0.4933012 -0.58604,-0.4071398 -0.32477,0.081995 -0.45673,0.4042792 -0.14563,0.6303421 z"
       id="path1-222-5"
       sodipodi:nodetypes="ssss" /><path
       style="fill:#ffffff;stroke-width:0.0489489"
       d="m 165.04292,9.7410892 c 0.34233,0.234394 0.85029,0.0301 0.85925,-0.2469955 0.0105,-0.325332 -0.28742,-0.5458872 -0.68822,-0.4505411 -0.38141,0.090735 -0.53638,0.4473757 -0.17103,0.6975366 z"
       id="path1-132-9"
       sodipodi:nodetypes="ssss" /><path
       style="fill:#ffffff;stroke-width:0.043155"
       d="m 162.61545,74.034839 c 0.26609,0.234394 0.66092,0.0301 0.66788,-0.246995 0.008,-0.325333 -0.22341,-0.545888 -0.53494,-0.450542 -0.29646,0.09074 -0.41691,0.447376 -0.13294,0.697537 z"
       id="path1-53-7"
       sodipodi:nodetypes="ssss" /><path
       style="fill:#ffffff;stroke-width:0.0429383"
       d="m 150.19544,45.998876 c 0.29151,0.211814 0.72404,0.0272 0.73167,-0.223202 0.009,-0.293992 -0.24475,-0.493301 -0.58603,-0.40714 -0.32478,0.08199 -0.45674,0.404279 -0.14564,0.630342 z"
       id="path1-03-9"
       sodipodi:nodetypes="ssss" /><path
       style="fill:#ffffff;stroke-width:0.0451859"
       d="m 139.5967,49.947892 c 0.26609,0.256974 0.66092,0.033 0.66788,-0.270789 0.008,-0.356672 -0.22341,-0.598473 -0.53494,-0.493942 -0.29646,0.09948 -0.41691,0.490472 -0.13294,0.764731 z"
       id="path1-303-8"
       sodipodi:nodetypes="ssss" /><path
       style="fill:#ffffff;stroke-width:0.044771"
       d="m 153.12127,22.715536 c 0.31691,0.211814 0.78716,0.0272 0.79546,-0.223202 0.01,-0.293992 -0.26609,-0.493301 -0.63713,-0.40714 -0.35309,0.082 -0.49656,0.404279 -0.15833,0.630342 z"
       id="path1-30-0"
       sodipodi:nodetypes="ssss" /><path
       style="fill:#ffffff;stroke-width:0.0555736"
       d="m 149.4325,30.613569 c 0.34234,0.302132 0.8503,0.0388 0.85925,-0.318377 0.0105,-0.419351 -0.28742,-0.703645 -0.68822,-0.580744 -0.38141,0.116957 -0.53638,0.576664 -0.17103,0.899121 z"
       id="path1-444-1"
       sodipodi:nodetypes="ssss" /><path
       style="fill:#ffffff;stroke-width:0.0451859"
       d="m 96.205038,8.6728926 c 0.266089,0.2569731 0.660916,0.033001 0.667878,-0.2707892 0.0082,-0.3566718 -0.22341,-0.5984734 -0.534942,-0.4939424 -0.296458,0.099476 -0.416916,0.490472 -0.132936,0.7647316 z"
       id="path1-58-4"
       sodipodi:nodetypes="ssss" /><path
       style="fill:#ffffff;stroke-width:0.0575996"
       d="m 100.71071,18.971909 c 0.36775,0.302132 0.91342,0.0388 0.92304,-0.318377 0.0113,-0.419351 -0.30876,-0.703645 -0.73932,-0.580744 -0.40972,0.116957 -0.5762,0.576664 -0.18372,0.899121 z"
       id="path1-34-7"
       sodipodi:nodetypes="ssss" /><path
       style="fill:#ffffff;stroke-width:0.0507334"
       d="m 96.266659,45.195259 c 0.367749,0.234394 0.913421,0.0301 0.923043,-0.246995 0.0113,-0.325333 -0.308764,-0.545888 -0.739319,-0.450542 -0.409721,0.09074 -0.5762,0.447376 -0.183724,0.697537 z"
       id="path1-44-5"
       sodipodi:nodetypes="ssss" /><path
       style="fill:#ffffff;stroke-width:0.0597132"
       d="m 94.149992,65.793292 c 0.367749,0.324711 0.913421,0.0417 0.923043,-0.34217 0.0113,-0.450691 -0.308764,-0.756232 -0.739319,-0.624146 -0.409721,0.125698 -0.5762,0.619761 -0.183724,0.966316 z"
       id="path1-64-5"
       sodipodi:nodetypes="ssss" /><path
       style="fill:#ffffff;stroke-width:0.0429383"
       d="m 136.96628,33.563456 c 0.2915,0.211814 0.72404,0.0272 0.73166,-0.223202 0.009,-0.293992 -0.24474,-0.493301 -0.58603,-0.40714 -0.32478,0.08199 -0.45674,0.404279 -0.14563,0.630342 z"
       id="path1-29-5"
       sodipodi:nodetypes="ssss" /><path
       style="fill:#ffffff;stroke-width:0.0948724"
       d="m 133.20932,13.722939 c 0.59649,0.505348 1.48156,0.0649 1.49717,-0.532517 0.0183,-0.701408 -0.50081,-1.17692 -1.19917,-0.971356 -0.66456,0.195623 -0.93459,0.964531 -0.298,1.503873 z"
       id="path1-186-0"
       sodipodi:nodetypes="ssss" /><path
       style="fill:#ffffff;stroke-width:0.0780799"
       d="m 123.87576,5.7032712 c 0.52024,0.39245 1.29218,0.0504 1.30579,-0.41355 0.016,-0.54471 -0.4368,-0.91399 -1.04589,-0.75435 -0.57961,0.15192 -0.81512,0.74905 -0.2599,1.1679 z"
       id="path1-28-9"
       sodipodi:nodetypes="ssss" /><path
       style="fill:#ffffff;stroke-width:0.0514341"
       d="m 107.87752,6.0171857 c 0.31692,0.2795526 0.78716,0.035901 0.79546,-0.2945827 0.01,-0.3880115 -0.26609,-0.6510595 -0.63713,-0.5373436 -0.35309,0.1082166 -0.49656,0.5335683 -0.15833,0.8319263 z"
       id="path1-163-2"
       sodipodi:nodetypes="ssss" /><path
       style="fill:#ffffff;stroke-width:0.0531209"
       d="m 112.93541,31.691642 c 0.36775,0.256974 0.91342,0.033 0.92304,-0.270789 0.0113,-0.356672 -0.30876,-0.598473 -0.73932,-0.493942 -0.40972,0.09948 -0.5762,0.490472 -0.18372,0.764731 z"
       id="path1-25-8"
       sodipodi:nodetypes="ssss" /><path
       style="fill:#ffffff;stroke-width:0.055433"
       d="m 127.1921,52.034952 c 0.31692,0.324711 0.78717,0.0417 0.79546,-0.34217 0.01,-0.450691 -0.26609,-0.756232 -0.63713,-0.624146 -0.35309,0.125698 -0.49656,0.619761 -0.15833,0.966316 z"
       id="path1-57-2"
       sodipodi:nodetypes="ssss" /><path
       style="fill:#ffffff;stroke-width:0.0470969"
       d="m 131.9546,70.595259 c 0.31692,0.234394 0.78717,0.0301 0.79546,-0.246995 0.01,-0.325333 -0.26609,-0.545888 -0.63713,-0.450542 -0.35309,0.09074 -0.49656,0.447376 -0.15833,0.697537 z"
       id="path1-99-4"
       sodipodi:nodetypes="ssss" /><path
       style="fill:#ffffff;stroke-width:0.0493132"
       d="m 109.46502,76.141642 c 0.31692,0.256974 0.78716,0.033 0.79546,-0.270789 0.01,-0.356672 -0.26609,-0.598473 -0.63713,-0.493942 -0.35309,0.09948 -0.49656,0.490472 -0.15833,0.764731 z"
       id="path1-839-5"
       sodipodi:nodetypes="ssss" /><path
       style="fill:#ffffff;stroke-width:0.0780799"
       d="m 112.76326,60.207441 c 0.52024,0.39245 1.29218,0.0504 1.30579,-0.41355 0.016,-0.54471 -0.4368,-0.91399 -1.04589,-0.75435 -0.57961,0.15192 -0.81512,0.74905 -0.2599,1.1679 z"
       id="path1-49-0"
       sodipodi:nodetypes="ssss" /><path
       style="fill:#ffffff;stroke-width:0.0780799"
       d="m 122.28826,96.984521 c 0.52024,0.39245 1.29218,0.0504 1.30579,-0.41355 0.016,-0.54471 -0.4368,-0.91399 -1.04589,-0.75435 -0.57961,0.15192 -0.81512,0.74905 -0.2599,1.1679 z"
       id="path1-69-4"
       sodipodi:nodetypes="ssss" /><path
       style="fill:#ffffff;stroke-width:0.0514341"
       d="m 129.83793,104.1776 c 0.31692,0.27956 0.78717,0.0359 0.79546,-0.29458 0.01,-0.38801 -0.26609,-0.65106 -0.63713,-0.53734 -0.35309,0.10821 -0.49656,0.53357 -0.15833,0.83192 z"
       id="path1-22-4"
       sodipodi:nodetypes="ssss" /><path
       style="fill:#ffffff;stroke-width:0.0429738"
       d="m 131.11463,112.91872 c 0.24068,0.25697 0.59779,0.033 0.60409,-0.27079 0.007,-0.35667 -0.20207,-0.59847 -0.48385,-0.49394 -0.26814,0.0995 -0.37709,0.49047 -0.12024,0.76473 z"
       id="path1-525-0"
       sodipodi:nodetypes="ssss" /><path
       style="fill:#ffffff;stroke-width:0.0489489"
       d="m 130.91167,135.41817 c 0.34233,0.23439 0.85029,0.0301 0.85925,-0.247 0.0105,-0.32533 -0.28742,-0.54588 -0.68822,-0.45054 -0.38141,0.0907 -0.53638,0.44738 -0.17103,0.69754 z"
       id="path1-181-5"
       sodipodi:nodetypes="ssss" /><path
       style="fill:#ffffff;stroke-width:0.0531209"
       d="m 105.47321,101.33092 c 0.36775,0.25698 0.91342,0.033 0.92304,-0.27079 0.0113,-0.35667 -0.30876,-0.59847 -0.73932,-0.49394 -0.40972,0.0995 -0.5762,0.49047 -0.18372,0.76473 z"
       id="path1-52-1"
       sodipodi:nodetypes="ssss" /><path
       style="fill:#ffffff;stroke-width:0.0780799"
       d="m 111.17576,110.47827 c 0.52024,0.39245 1.29218,0.0504 1.30579,-0.41355 0.016,-0.54471 -0.4368,-0.91399 -1.04589,-0.75435 -0.57961,0.15192 -0.81512,0.74905 -0.2599,1.1679 z"
       id="path1-19-1"
       sodipodi:nodetypes="ssss" /><path
       style="fill:#ffffff;stroke-width:0.0780799"
       d="m 106.94242,117.8866 c 0.52024,0.39245 1.29218,0.0504 1.30579,-0.41355 0.016,-0.54471 -0.43679,-0.91399 -1.04588,-0.75435 -0.57962,0.15192 -0.81513,0.74905 -0.25991,1.1679 z"
       id="path1-46-5"
       sodipodi:nodetypes="ssss" /><path
       style="fill:#ffffff;stroke-width:0.0470969"
       d="m 100.73377,125.36401 c 0.31691,0.23439 0.78716,0.0301 0.79546,-0.247 0.01,-0.32533 -0.26609,-0.54588 -0.63713,-0.45054 -0.35309,0.0907 -0.49656,0.44738 -0.15833,0.69754 z"
       id="path1-26-9"
       sodipodi:nodetypes="ssss" /><path
       style="fill:#ffffff;stroke-width:0.045169"
       d="m 120.29753,141.23901 c 0.2915,0.23439 0.72404,0.0301 0.73167,-0.247 0.009,-0.32533 -0.24475,-0.54588 -0.58604,-0.45054 -0.32478,0.0907 -0.45674,0.44738 -0.14563,0.69754 z"
       id="path1-24-0"
       sodipodi:nodetypes="ssss" /><path
       style="fill:#ffffff;stroke-width:0.0387756"
       d="m 107.84671,133.32124 c 0.26608,0.18924 0.66091,0.0243 0.66787,-0.19941 0.008,-0.26265 -0.22341,-0.44071 -0.53494,-0.36374 -0.29646,0.0733 -0.41691,0.36119 -0.13293,0.56315 z"
       id="path1-81-8"
       sodipodi:nodetypes="ssss" /><path
       style="fill:#ffffff;stroke-width:0.0429383"
       d="m 96.220444,151.03846 c 0.291504,0.21181 0.724041,0.0272 0.731668,-0.22321 0.009,-0.29399 -0.244748,-0.4933 -0.586036,-0.40714 -0.324774,0.082 -0.456736,0.40428 -0.145632,0.63035 z"
       id="path1-82-3"
       sodipodi:nodetypes="ssss" /><path
       style="fill:#ffffff;stroke-width:0.0470969"
       d="m 103.90877,155.26192 c 0.31692,0.23439 0.78716,0.0301 0.79546,-0.247 0.01,-0.32533 -0.26609,-0.54588 -0.63713,-0.45054 -0.35309,0.0907 -0.49656,0.44738 -0.15833,0.69754 z"
       id="path1-98-8"
       sodipodi:nodetypes="ssss" /><path
       style="fill:#ffffff;stroke-width:0.0780799"
       d="m 120.17159,161.54285 c 0.52024,0.39245 1.29218,0.0504 1.30579,-0.41355 0.016,-0.54471 -0.4368,-0.91399 -1.04588,-0.75435 -0.57962,0.15192 -0.81513,0.74905 -0.25991,1.1679 z"
       id="path1-88-7"
       sodipodi:nodetypes="ssss" /><path
       style="fill:#ffffff;stroke-width:0.0493287"
       d="m 97.278777,231.44218 c 0.291504,0.27956 0.724041,0.0359 0.731668,-0.29458 0.009,-0.38801 -0.244748,-0.65106 -0.586036,-0.53734 -0.324774,0.10821 -0.456736,0.53357 -0.145632,0.83192 z"
       id="path1-37-2"
       sodipodi:nodetypes="ssss" /><path
       style="fill:#ffffff;stroke-width:0.0482637"
       d="m 99.412547,181.18689 c 0.319721,0.244 0.794123,0.0313 0.802493,-0.25711 0.01,-0.33866 -0.26844,-0.56825 -0.642764,-0.46899 -0.356211,0.0944 -0.500947,0.4657 -0.159729,0.7261 z"
       id="path1-92-6"
       sodipodi:nodetypes="ssss" /><path
       style="fill:#ffffff;stroke-width:0.0443188"
       d="m 101.48633,195.21814 c 0.26959,0.24399 0.66961,0.0313 0.67667,-0.25711 0.008,-0.33866 -0.22635,-0.56825 -0.54199,-0.469 -0.30036,0.0944 -0.4224,0.4657 -0.13468,0.72611 z"
       id="path1-83-9"
       sodipodi:nodetypes="ssss" /><path
       style="fill:#ffffff;stroke-width:0.0412935"
       d="m 117.64854,179.35427 c 0.2863,0.19946 0.71112,0.0256 0.71861,-0.21018 0.009,-0.27684 -0.24038,-0.46452 -0.57558,-0.38339 -0.31897,0.0772 -0.44858,0.3807 -0.14303,0.59357 z"
       id="path1-651-3"
       sodipodi:nodetypes="ssss" /><path
       style="fill:#ffffff;stroke-width:0.0428027"
       d="m 109.91104,217.88112 c 0.2863,0.2143 0.71112,0.0275 0.71861,-0.22583 0.009,-0.29744 -0.24038,-0.4991 -0.57558,-0.41192 -0.31897,0.083 -0.44858,0.40903 -0.14303,0.63775 z"
       id="path1-10-8"
       sodipodi:nodetypes="ssss" /><path
       style="fill:#ffffff;stroke-width:0.0424815"
       d="m 112.89617,207.66468 c 0.30301,0.19946 0.75262,0.0256 0.76055,-0.21018 0.009,-0.27684 -0.25441,-0.46452 -0.60917,-0.38339 -0.33759,0.0772 -0.47477,0.3807 -0.15138,0.59357 z"
       id="path1-778-1"
       sodipodi:nodetypes="ssss" /><path
       style="fill:#ffffff;stroke-width:0.0455337"
       d="m 120.45242,189.35171 c 0.30301,0.22915 0.75262,0.0294 0.76055,-0.24147 0.009,-0.31805 -0.25441,-0.53367 -0.60917,-0.44046 -0.33759,0.0887 -0.47477,0.43737 -0.15138,0.68193 z"
       id="path1-39-0"
       sodipodi:nodetypes="ssss" /><path
       style="fill:#ffffff;stroke-width:0.0467724"
       d="m 103.74171,174.79963 c 0.31973,0.22915 0.79413,0.0294 0.8025,-0.24147 0.01,-0.31805 -0.26844,-0.53367 -0.64277,-0.44046 -0.35621,0.0887 -0.50094,0.43737 -0.15973,0.68193 z"
       id="path1-189-3"
       sodipodi:nodetypes="ssss" /><path
       style="fill:#ffffff;stroke-width:0.0412935"
       d="m 106.80062,192.58343 c 0.2863,0.19946 0.71112,0.0256 0.71861,-0.21018 0.009,-0.27684 -0.24038,-0.46452 -0.57557,-0.38339 -0.31898,0.0772 -0.44859,0.3807 -0.14304,0.59357 z"
       id="path1-01-3"
       sodipodi:nodetypes="ssss" /><path
       style="fill:#ffffff;stroke-width:0.0482637"
       d="m 146.8688,157.91189 c 0.31972,0.24399 0.79412,0.0313 0.80249,-0.25711 0.01,-0.33866 -0.26844,-0.56825 -0.64276,-0.469 -0.35622,0.0945 -0.50095,0.4657 -0.15973,0.72611 z"
       id="path1-78-8"
       sodipodi:nodetypes="ssss" /><path
       style="fill:#ffffff;stroke-width:0.0483938"
       d="m 138.97325,171.98041 c 0.30301,0.25884 0.75262,0.0332 0.76055,-0.27276 0.009,-0.35926 -0.25441,-0.60282 -0.60917,-0.49753 -0.33759,0.1002 -0.47476,0.49403 -0.15138,0.77029 z"
       id="path1-12-4"
       sodipodi:nodetypes="ssss" /><path
       style="fill:#ffffff;stroke-width:0.0363925"
       d="m 136.16937,175.93415 c 0.2863,0.15492 0.71112,0.0199 0.71861,-0.16325 0.009,-0.21503 -0.24038,-0.3608 -0.57557,-0.29779 -0.31898,0.06 -0.44859,0.29569 -0.14304,0.46104 z"
       id="path1-66-8"
       sodipodi:nodetypes="ssss" /><path
       style="fill:#ffffff;stroke-width:0.0780799"
       d="m 133.92992,181.65119 c 0.52024,0.39245 1.29218,0.0504 1.30579,-0.41355 0.016,-0.54471 -0.43679,-0.91399 -1.04588,-0.75435 -0.57962,0.15192 -0.81513,0.74905 -0.25991,1.1679 z"
       id="path1-9-0"
       sodipodi:nodetypes="ssss" /><path
       style="fill:#ffffff;stroke-width:0.0385503"
       d="m 185.35924,197.35242 c 0.26959,0.18461 0.66962,0.0237 0.67667,-0.19454 0.008,-0.25623 -0.22635,-0.42995 -0.54198,-0.35485 -0.30036,0.0715 -0.4224,0.35236 -0.13469,0.54939 z"
       id="path1-77-1"
       sodipodi:nodetypes="ssss" /><path
       style="fill:#ffffff;stroke-width:0.0346007"
       d="m 174.59524,203.44433 c 0.23617,0.16977 0.5866,0.0218 0.59278,-0.17889 0.007,-0.23564 -0.19829,-0.39538 -0.47479,-0.32632 -0.26313,0.0657 -0.37004,0.32402 -0.11799,0.50521 z"
       id="path1-60-5"
       sodipodi:nodetypes="ssss" /><path
       style="fill:#ffffff;stroke-width:0.0467724"
       d="m 171.47505,183.83921 c 0.31972,0.22915 0.79412,0.0294 0.80249,-0.24147 0.01,-0.31805 -0.26844,-0.53367 -0.64276,-0.44046 -0.35621,0.0887 -0.50095,0.43737 -0.15973,0.68193 z"
       id="path1-2-4"
       sodipodi:nodetypes="ssss" /><path
       style="fill:#ffffff;stroke-width:0.0780799"
       d="m 185.25909,179.26994 c 0.52024,0.39245 1.29218,0.0504 1.30579,-0.41355 0.016,-0.54471 -0.4368,-0.91399 -1.04588,-0.75435 -0.57962,0.15192 -0.81513,0.74905 -0.25991,1.1679 z"
       id="path1-165-1"
       sodipodi:nodetypes="ssss" /><path
       style="fill:#ffffff;stroke-width:0.0443188"
       d="m 200.44049,196.01189 c 0.26959,0.24399 0.66962,0.0313 0.67667,-0.25711 0.008,-0.33866 -0.22635,-0.56825 -0.54198,-0.469 -0.30036,0.0944 -0.42241,0.4657 -0.13469,0.72611 z"
       id="path1-73-3"
       sodipodi:nodetypes="ssss" /><path
       style="fill:#ffffff;stroke-width:0.0449701"
       d="m 197.67279,211.36299 c 0.31813,0.21288 0.79018,0.0273 0.7985,-0.22434 0.01,-0.29548 -0.26711,-0.49581 -0.63956,-0.40921 -0.35444,0.0824 -0.49846,0.40633 -0.15894,0.63355 z"
       id="path1-0-7"
       sodipodi:nodetypes="ssss" /><path
       style="fill:#ffffff;stroke-width:0.0357482"
       d="m 189.60623,210.85796 c 0.27149,0.15764 0.67432,0.0202 0.68143,-0.16612 0.008,-0.2188 -0.22795,-0.36713 -0.5458,-0.30301 -0.30247,0.061 -0.42537,0.30088 -0.13563,0.46913 z"
       id="path1-13-3"
       sodipodi:nodetypes="ssss" /><path
       style="fill:#ffffff;stroke-width:0.0489529"
       d="m 200.22726,251.30299 c 0.33367,0.24052 0.82879,0.0309 0.83752,-0.25344 0.0103,-0.33383 -0.28016,-0.56014 -0.67082,-0.46231 -0.37176,0.0931 -0.52282,0.45906 -0.1667,0.71575 z"
       id="path1-7-5"
       sodipodi:nodetypes="ssss" /><path
       style="fill:#ffffff;stroke-width:0.0475265"
       d="m 191.23142,236.49237 c 0.33368,0.2267 0.82879,0.0291 0.83753,-0.23889 0.0103,-0.31466 -0.28016,-0.52797 -0.67083,-0.43576 -0.37176,0.0878 -0.52281,0.4327 -0.1667,0.67465 z"
       id="path1-618-8"
       sodipodi:nodetypes="ssss" /><path
       style="fill:#ffffff;stroke-width:0.0500803"
       d="m 175.89501,261.62174 c 0.34923,0.24052 0.86741,0.0309 0.87655,-0.25344 0.0107,-0.33383 -0.29321,-0.56014 -0.70208,-0.46231 -0.38908,0.0931 -0.54717,0.45906 -0.17447,0.71575 z"
       id="path1-4-5"
       sodipodi:nodetypes="ssss" /><path
       style="fill:#ffffff;stroke-width:0.0427159"
       d="m 181.87586,258.98799 c 0.28704,0.21288 0.71294,0.0273 0.72045,-0.22434 0.009,-0.29548 -0.24099,-0.49581 -0.57705,-0.40921 -0.31979,0.0824 -0.44973,0.40633 -0.1434,0.63355 z"
       id="path1-61-6"
       sodipodi:nodetypes="ssss" /><path
       style="fill:#ffffff;stroke-width:0.0780799"
       d="m 173.88201,242.76994 c 0.52024,0.39245 1.29218,0.0504 1.30579,-0.41355 0.016,-0.54471 -0.4368,-0.91399 -1.04589,-0.75435 -0.57961,0.15192 -0.81512,0.74905 -0.2599,1.1679 z"
       id="path1-65-9"
       sodipodi:nodetypes="ssss" /><path
       style="fill:#ffffff;stroke-width:0.0441562"
       d="m 167.38123,218.2262 c 0.27149,0.24051 0.67433,0.0309 0.68143,-0.25344 0.008,-0.33383 -0.22794,-0.56015 -0.5458,-0.46231 -0.30247,0.0931 -0.42537,0.45906 -0.13563,0.71575 z"
       id="path1-6-0"
       sodipodi:nodetypes="ssss" /><path
       style="fill:#ffffff;stroke-width:0.0472727"
       d="m 158.17825,203.29843 c 0.36625,0.20434 0.9097,0.0263 0.91928,-0.21532 0.0113,-0.28362 -0.3075,-0.47589 -0.7363,-0.39277 -0.40806,0.0791 -0.57386,0.39001 -0.18298,0.60809 z"
       id="path1-86-8"
       sodipodi:nodetypes="ssss" /><path
       style="fill:#ffffff;stroke-width:0.0465529"
       d="m 159.74242,230.33846 c 0.32775,0.22144 0.81407,0.0284 0.82265,-0.23335 0.0101,-0.30735 -0.27518,-0.51572 -0.65891,-0.42564 -0.36516,0.0857 -0.51354,0.42265 -0.16374,0.65899 z"
       id="path1-8-9"
       sodipodi:nodetypes="ssss" /><path
       style="fill:#ffffff;stroke-width:0.0420109"
       d="m 158.39616,214.41093 c 0.28926,0.20434 0.71846,0.0263 0.72603,-0.21532 0.009,-0.28362 -0.24286,-0.47589 -0.58152,-0.39277 -0.32227,0.0791 -0.45321,0.39001 -0.14451,0.60809 z"
       id="path1-3-3"
       sodipodi:nodetypes="ssss" /><path
       style="fill:#ffffff;stroke-width:0.0510759"
       d="m 138.59908,200.22848 c 0.36625,0.23854 0.9097,0.0306 0.91929,-0.25137 0.0113,-0.33108 -0.30751,-0.55554 -0.73631,-0.45851 -0.40805,0.0923 -0.57385,0.45529 -0.18298,0.70988 z"
       id="path1-54-6"
       sodipodi:nodetypes="ssss" /><path
       style="fill:#ffffff;stroke-width:0.0780799"
       d="m 129.43201,226.89494 c 0.52024,0.39245 1.29218,0.0504 1.30579,-0.41355 0.016,-0.54471 -0.4368,-0.91399 -1.04589,-0.75435 -0.57961,0.15192 -0.81512,0.74905 -0.2599,1.1679 z"
       id="path1-18-0"
       sodipodi:nodetypes="ssss" /><path
       style="fill:#ffffff;stroke-width:0.0467106"
       d="m 130.63314,246.81019 c 0.31933,0.22883 0.79314,0.0294 0.8015,-0.24113 0.01,-0.3176 -0.26811,-0.53292 -0.64197,-0.43984 -0.35577,0.0886 -0.50033,0.43675 -0.15953,0.68097 z"
       id="path1-16-6"
       sodipodi:nodetypes="ssss" /><path
       style="fill:#ffffff;stroke-width:0.0780799"
       d="m 134.98826,266.05327 c 0.52024,0.39245 1.29218,0.0504 1.30579,-0.41355 0.016,-0.54471 -0.4368,-0.91399 -1.04589,-0.75435 -0.57961,0.15192 -0.81512,0.74905 -0.2599,1.1679 z"
       id="path1-14-9"
       sodipodi:nodetypes="ssss" /><path
       style="fill:#ffffff;stroke-width:0.0512614"
       d="m 151.86419,257.11322 c 0.33235,0.2648 0.82548,0.034 0.83417,-0.27903 0.0102,-0.36752 -0.27903,-0.61668 -0.66813,-0.50897 -0.37027,0.1025 -0.52072,0.5054 -0.16604,0.788 z"
       id="path1-1-7"
       sodipodi:nodetypes="ssss" /><path
       style="fill:#ffffff;stroke-width:0.0457065"
       d="m 147.68636,217.70747 c 0.31024,0.22551 0.77057,0.029 0.77869,-0.23764 0.01,-0.31301 -0.26048,-0.52521 -0.62369,-0.43348 -0.34565,0.0873 -0.48609,0.43043 -0.155,0.67112 z"
       id="path1-5-8"
       sodipodi:nodetypes="ssss" /><path
       style="fill:#ffffff;stroke-width:0.0780799"
       d="m 143.6594,239.36384 c 0.52024,0.39245 1.29218,0.0504 1.30579,-0.41355 0.016,-0.54471 -0.43679,-0.91399 -1.04588,-0.75435 -0.57962,0.15192 -0.81513,0.74905 -0.25991,1.1679 z"
       id="path1-941"
       sodipodi:nodetypes="ssss" /><path
       style="fill:#ffffff;stroke-width:0.0384283"
       d="m 130.32871,80.137462 c 0.25358,0.195027 0.62984,0.02505 0.63648,-0.205513 0.008,-0.270693 -0.21291,-0.454206 -0.5098,-0.374873 -0.28252,0.0755 -0.39731,0.372239 -0.12668,0.580386 z"
       id="path1-450-5"
       sodipodi:nodetypes="ssss" /></g></svg>
